<svg width="1000" height="1000" viewBox="0 0 1000 1000" fill="none" xmlns="http://www.w3.org/2000/svg">
<rect width="1000" height="1000" rx="500" fill="black"/>
<path fill-rule="evenodd" clip-rule="evenodd" d="M276.158 730.79C150.614 605.247 150.614 401.701 276.158 276.158C401.701 150.614 605.247 150.614 730.79 276.158C751.234 296.601 768.348 319.113 782.133 343.019C659.23 272.148 499.462 289.262 394.362 394.362C289.262 499.462 272.148 659.23 343.019 782.133C319.113 768.348 296.601 751.234 276.158 730.79ZM570.13 818C588.002 688.727 525.068 525.068 394.362 394.362C525.068 525.068 688.727 588.002 818 570.13C805.58 629.005 776.51 685.07 730.79 730.79C685.07 776.51 629.005 805.58 570.13 818Z" fill="white"/>
</svg>
