<svg width="497" height="98" viewBox="0 0 497 98" fill="none" xmlns="http://www.w3.org/2000/svg">
<path fill-rule="evenodd" clip-rule="evenodd" d="M11.6957 68.1674C-3.89856 52.5731 -3.89856 27.2899 11.6957 11.6957C27.2899 -3.89856 52.5731 -3.89856 68.1674 11.6957C70.7067 14.235 72.8325 17.0313 74.5449 20.0008C59.2785 11.1976 39.4332 13.3234 26.3783 26.3783C13.3234 39.4332 11.1976 59.2785 20.0008 74.5449C17.0313 72.8325 14.235 70.7067 11.6957 68.1674ZM48.2111 79C50.431 62.9426 42.6138 42.6138 26.3783 26.3783C42.6138 42.6138 62.9426 50.431 79 48.2111C77.4573 55.5242 73.8464 62.4883 68.1674 68.1674C62.4883 73.8464 55.5242 77.4573 48.2111 79Z" fill="white"/>
<path d="M133.572 78.5H121.54V11.3613H97.8002V0.995117H157.258V11.3613H133.572V78.5ZM169.184 70.2822C177.295 70.2822 183.632 64.6963 183.632 57.3379V52.8799L169.721 53.7393C162.793 54.2227 158.872 57.2842 158.872 62.1182C158.872 67.0596 162.954 70.2822 169.184 70.2822ZM165.962 79.4668C154.897 79.4668 147.163 72.5918 147.163 62.4404C147.163 52.5576 154.736 46.4883 168.164 45.7363L183.632 44.8232V40.4727C183.632 34.1885 179.389 30.4287 172.299 30.4287C165.586 30.4287 161.396 33.6514 160.376 38.7002H149.419C150.063 28.4951 158.764 20.9756 172.729 20.9756C186.425 20.9756 195.18 28.2266 195.18 39.5596V78.5H184.062V69.208H183.794C180.517 75.4922 173.374 79.4668 165.962 79.4668ZM204.26 78.5V21.9961H215.324V31.4492H215.593C218.654 25.0039 224.67 21.0293 233.371 21.0293C245.832 21.0293 252.975 28.9785 252.975 41.9229V78.5H241.32V44.1787C241.32 35.6924 237.346 31.0195 229.289 31.0195C221.125 31.0195 215.861 36.8203 215.861 45.5752V78.5H204.26ZM292.079 79.4668C283.808 79.4668 277.416 75.4385 273.925 68.8857H273.71V78.5H262.431V0.995117H274.032V31.6104H274.301C277.685 25.0576 284.13 21.083 292.133 21.083C306.366 21.083 315.658 32.3623 315.658 50.248C315.658 68.1875 306.42 79.4668 292.079 79.4668ZM288.964 30.8584C280.155 30.8584 273.979 38.5928 273.979 50.248C273.979 62.0107 280.155 69.6377 288.964 69.6377C298.095 69.6377 303.734 62.2256 303.734 50.248C303.734 38.3779 298.095 30.8584 288.964 30.8584ZM346.813 79.5742C330.646 79.5742 320.011 68.4561 320.011 50.248C320.011 32.0938 330.699 20.9756 346.813 20.9756C362.926 20.9756 373.614 32.0938 373.614 50.248C373.614 68.4561 362.98 79.5742 346.813 79.5742ZM346.813 70.0137C355.944 70.0137 361.798 62.8164 361.798 50.248C361.798 37.7334 355.89 30.5361 346.813 30.5361C337.736 30.5361 331.827 37.7334 331.827 50.248C331.827 62.8164 337.736 70.0137 346.813 70.0137ZM409.818 21.083C424.159 21.083 433.612 32.3623 433.612 50.248C433.612 68.1338 424.212 79.4668 410.033 79.4668C401.922 79.4668 395.477 75.4922 392.254 69.208H391.986V97.1914H380.384V21.9961H391.61V31.7178H391.825C395.155 25.2188 401.654 21.083 409.818 21.083ZM406.756 69.6377C415.941 69.6377 421.688 62.1182 421.688 50.248C421.688 38.4316 415.941 30.8584 406.756 30.8584C397.894 30.8584 391.932 38.5928 391.932 50.248C391.932 62.0107 397.84 69.6377 406.756 69.6377ZM469.815 21.083C484.156 21.083 493.609 32.3623 493.609 50.248C493.609 68.1338 484.21 79.4668 470.03 79.4668C461.92 79.4668 455.474 75.4922 452.252 69.208H451.983V97.1914H440.381V21.9961H451.607V31.7178H451.822C455.152 25.2188 461.651 21.083 469.815 21.083ZM466.754 69.6377C475.938 69.6377 481.685 62.1182 481.685 50.248C481.685 38.4316 475.938 30.8584 466.754 30.8584C457.891 30.8584 451.929 38.5928 451.929 50.248C451.929 62.0107 457.837 69.6377 466.754 69.6377Z" fill="white"/>
</svg>
